<svg width="20" height="20" viewBox="0 0 20 20" fill="none" xmlns="http://www.w3.org/2000/svg" color="#8E8E8E" name="document"><path fill-rule="evenodd" clip-rule="evenodd" d="M13 3h2.5a.5.5 0 0 1 .5.5v14a.5.5 0 0 1-.5.5h-11a.5.5 0 0 1-.5-.5v-14a.5.5 0 0 1 .5-.5H7v-.5a.5.5 0 0 1 .5-.5h5a.5.5 0 0 1 .5.5V3Zm-1 0H8v2h4V3ZM5 17h10V4h-2v1.5a.5.5 0 0 1-.5.5h-5a.5.5 0 0 1-.5-.5V4H5v13Zm2.5-6h5a.5.5 0 0 1 0 1h-5a.5.5 0 0 1 0-1Zm5 3h-5a.5.5 0 0 0 0 1h5a.5.5 0 0 0 0-1Zm-5-6h5a.5.5 0 0 1 0 1h-5a.5.5 0 1 1 0-1Z" fill="#8E8E8E"></path></svg>