<svg width="129" height="80" viewBox="0 0 129 80" fill="none" xmlns="http://www.w3.org/2000/svg">
<rect width="129" height="80" fill="white"/>
<rect width="129" height="80" fill="#F2D2F7"/>
<path d="M59.75 48.5V30.0833L76.75 27.25V45.6667" stroke="#EC455F" stroke-width="1.5" stroke-linecap="round" stroke-linejoin="round"/>
<path d="M59.75 35.7498L76.75 32.9165" stroke="#EC455F" stroke-width="1.5" stroke-linecap="round" stroke-linejoin="round"/>
<path d="M55.5 52.75C57.8472 52.75 59.75 50.8472 59.75 48.5C59.75 46.1528 57.8472 44.25 55.5 44.25C53.1528 44.25 51.25 46.1528 51.25 48.5C51.25 50.8472 53.1528 52.75 55.5 52.75Z" stroke="#EC455F" stroke-width="1.5" stroke-linecap="round" stroke-linejoin="round"/>
<path d="M72.5 49.9165C74.8472 49.9165 76.75 48.0137 76.75 45.6665C76.75 43.3193 74.8472 41.4165 72.5 41.4165C70.1528 41.4165 68.25 43.3193 68.25 45.6665C68.25 48.0137 70.1528 49.9165 72.5 49.9165Z" stroke="#EC455F" stroke-width="1.5" stroke-linecap="round" stroke-linejoin="round"/>
</svg>
