<?xml version="1.0" encoding="utf-8"?>
<svg version="1.1" xmlns="http://www.w3.org/2000/svg" xmlns:xlink="http://www.w3.org/1999/xlink" x="0px" y="0px"
	 viewBox="0 0 219.1 216" style="enable-background:new 0 0 219.1 216;" xml:space="preserve">
<style type="text/css">
	.st0{display:none;}
	.st1{display:inline;}
	.st2{fill:none;stroke:#000000;stroke-width:18;stroke-miterlimit:18;}
</style>
<g id="Capa_1" class="st0">
	
		<image style="display:inline;overflow:visible;" width="354" height="340" xlink:href="arrow3.png"  transform="matrix(0.5 0 0 0.5 -187.8511 19.3404)">
	</image>
	
		<image style="display:inline;overflow:visible;" width="890" height="756" xlink:href="arrow2.png"  transform="matrix(0.2497 0 0 0.2497 7.5352 3.0638)">
	</image>
</g>
<g id="Capa_2">
	<g>
		<path d="M109.5,45c8.7,0,17.3,1.8,25.2,5.2l-6.9,9.3l31.7,3.7l-12.7-29.3l-7.2,9.7c-9.4-4.4-19.7-6.6-30.1-6.6
			c-39.4,0-71.4,32-71.4,71.4c0,6.9,1,13.7,2.9,20.2l7.7-2.3c-1.7-5.8-2.6-11.8-2.6-17.9C46.1,73.4,74.6,45,109.5,45z"/>
		<path d="M178.1,88.5l-7.7,2.2c1.7,5.7,2.5,11.7,2.5,17.7c0,35-28.4,63.4-63.4,63.4c-9.2,0-18.2-2-26.4-5.8l7.1-9.2l-31.6-4.3
			l12.1,29.5l7.4-9.6c9.7,4.8,20.5,7.3,31.5,7.3c39.4,0,71.4-32,71.4-71.4C180.9,101.6,180,94.9,178.1,88.5z"/>
	</g>
	<g class="st0">
		<g class="st1">
			<path class="st2" d="M48,122.2c-1.8-6-2.7-12.5-2.7-19.1c0-37.2,30.2-67.4,67.4-67.4c11.6,0,22.4,2.9,31.9,8"/>
			<g>
				<polygon points="131,54.3 162.7,57.9 150,28.7 				"/>
			</g>
		</g>
	</g>
	<g class="st0">
		<g class="st1">
			<path class="st2" d="M177.4,84.4c1.7,6,2.7,12.3,2.7,18.8c0,37.2-30.2,67.4-67.4,67.4c-12.1,0-23.4-3.2-33.2-8.7"/>
			<g>
				<polygon points="93.4,151.6 61.7,147.3 73.8,176.8 				"/>
			</g>
		</g>
	</g>
</g>
</svg>
