<svg width="72" height="72" viewBox="0 0 72 72" fill="none" xmlns="http://www.w3.org/2000/svg">
<mask id="path-1-inside-1_249_6" fill="white">
<path fill-rule="evenodd" clip-rule="evenodd" d="M14.3489 7.11362L23.7621 10.251C24.5557 9.87722 25.3695 9.53933 26.2014 9.23948L30.6399 0.363242C32.3107 0.123864 34.0188 0 35.7558 0C37.4922 0 39.1997 0.123774 40.87 0.36298L45.3079 9.23825C46.1407 9.53826 46.9552 9.87638 47.7495 10.2505L57.1622 7.11323C59.9055 9.16674 62.344 11.6051 64.3976 14.3483L61.2605 23.7605C61.6348 24.5551 61.9731 25.3701 62.2733 26.2032L71.1486 30.6412C71.3879 32.3116 71.5117 34.0193 71.5117 35.7558C71.5117 37.4923 71.3879 39.1999 71.1486 40.8703L62.273 45.3084C61.9729 46.1414 61.6346 46.9561 61.2603 47.7505L64.3976 57.1633C62.344 59.9065 59.9056 62.3448 57.1624 64.3983L47.7487 61.2607C46.9548 61.6346 46.1407 61.9726 45.3083 62.2724L40.8699 71.1487C39.1997 71.3879 37.4922 71.5117 35.7558 71.5117C34.0188 71.5117 32.3108 71.3878 30.64 71.1484L26.201 62.2712C25.3695 61.9715 24.5561 61.6338 23.763 61.2602L14.3487 64.3979C11.6052 62.3441 9.16658 59.9054 7.11288 57.1618L10.2508 47.7471C9.87742 46.9543 9.53991 46.1413 9.24037 45.3101L0.363155 40.8712C0.123834 39.2006 0 37.4927 0 35.7558C0 34.0189 0.123844 32.311 0.363184 30.6403L9.24008 26.2015C9.53966 25.3702 9.87722 24.557 10.2507 23.764L7.11293 14.3498C9.16665 11.6062 11.6054 9.16744 14.3489 7.11362ZM35.7544 45.4135C41.088 45.4135 45.4118 41.0897 45.4118 35.756C45.4118 30.4224 41.088 26.0986 35.7544 26.0986C30.4207 26.0986 26.0969 30.4224 26.0969 35.756C26.0969 41.0897 30.4207 45.4135 35.7544 45.4135Z"/>
</mask>
<path d="M23.7621 10.251L23.1297 12.1484C23.6176 12.311 24.1493 12.2795 24.6145 12.0603L23.7621 10.251ZM14.3489 7.11362L14.9813 5.21623C14.3593 5.00892 13.6752 5.11963 13.1504 5.51254L14.3489 7.11362ZM26.2014 9.23948L26.8795 11.121C27.3628 10.9468 27.7605 10.5934 27.9902 10.134L26.2014 9.23948ZM30.6399 0.363242L30.3562 -1.61654C29.7069 -1.52351 29.1444 -1.11796 28.851 -0.531239L30.6399 0.363242ZM40.87 0.36298L42.6588 -0.5315C42.3654 -1.11825 41.8029 -1.52381 41.1535 -1.61682L40.87 0.36298ZM45.3079 9.23825L43.5191 10.1327C43.7489 10.5923 44.1467 10.9457 44.6301 11.1199L45.3079 9.23825ZM47.7495 10.2505L46.8972 12.0598C47.3624 12.2789 47.8941 12.3105 48.3819 12.1479L47.7495 10.2505ZM57.1622 7.11323L58.3608 5.51213C57.8359 5.11924 57.1518 5.00854 56.5298 5.21584L57.1622 7.11323ZM64.3976 14.3483L66.295 14.9807C66.5023 14.3587 66.3915 13.6745 65.9986 13.1497L64.3976 14.3483ZM61.2605 23.7605L59.3631 23.1281C59.2005 23.616 59.232 24.1478 59.4512 24.6129L61.2605 23.7605ZM62.2733 26.2032L60.3917 26.8811C60.5658 27.3645 60.9193 27.7623 61.3788 27.992L62.2733 26.2032ZM71.1486 30.6412L73.1284 30.3576C73.0354 29.7082 72.6298 29.1458 72.0431 28.8524L71.1486 30.6412ZM71.1486 40.8703L72.0431 42.6591C72.6299 42.3657 73.0354 41.8032 73.1284 41.1538L71.1486 40.8703ZM62.273 45.3084L61.3785 43.5196C60.919 43.7494 60.5656 44.1471 60.3914 44.6304L62.273 45.3084ZM61.2603 47.7505L59.4511 46.8981C59.2319 47.3633 59.2003 47.8951 59.3629 48.3829L61.2603 47.7505ZM64.3976 57.1633L65.9987 58.3619C66.3916 57.8371 66.5023 57.1529 66.295 56.5309L64.3976 57.1633ZM57.1624 64.3983L56.53 66.2957C57.152 66.503 57.8361 66.3923 58.3609 65.9994L57.1624 64.3983ZM47.7487 61.2607L48.3811 59.3633C47.8933 59.2007 47.3616 59.2323 46.8964 59.4514L47.7487 61.2607ZM45.3083 62.2724L44.6304 60.3908C44.1471 60.5649 43.7493 60.9184 43.5195 61.3779L45.3083 62.2724ZM40.8699 71.1487L41.1534 73.1285C41.8028 73.0355 42.3653 72.6299 42.6587 72.0432L40.8699 71.1487ZM30.64 71.1484L28.8511 72.0429C29.1445 72.6296 29.707 73.0352 30.3563 73.1282L30.64 71.1484ZM26.201 62.2712L27.9898 61.3767C27.7601 60.9173 27.3624 60.5638 26.8792 60.3897L26.201 62.2712ZM23.763 61.2602L24.6153 59.4508C24.1501 59.2317 23.6184 59.2002 23.1306 59.3628L23.763 61.2602ZM14.3487 64.3979L13.1502 65.999C13.675 66.3919 14.3591 66.5026 14.9811 66.2953L14.3487 64.3979ZM7.11288 57.1618L5.2155 56.5294C5.00819 57.1513 5.11889 57.8354 5.51176 58.3603L7.11288 57.1618ZM10.2508 47.7471L12.1482 48.3795C12.3108 47.8917 12.2792 47.36 12.0602 46.8949L10.2508 47.7471ZM9.24037 45.3101L11.1219 44.632C10.9477 44.1488 10.5943 43.751 10.1348 43.5213L9.24037 45.3101ZM0.363155 40.8712L-1.61663 41.1548C-1.52361 41.8042 -1.11806 42.3666 -0.531326 42.66L0.363155 40.8712ZM0.363184 30.6403L-0.531297 28.8514C-1.11802 29.1448 -1.52358 29.7073 -1.6166 30.3567L0.363184 30.6403ZM9.24008 26.2015L10.1346 27.9903C10.594 27.7606 10.9475 27.3628 11.1216 26.8795L9.24008 26.2015ZM10.2507 23.764L12.06 24.6162C12.2791 24.151 12.3106 23.6194 12.1481 23.1316L10.2507 23.764ZM7.11293 14.3498L5.51181 13.1513C5.11893 13.6762 5.00824 14.3603 5.21554 14.9822L7.11293 14.3498ZM24.3945 8.35366L14.9813 5.21623L13.7165 9.01101L23.1297 12.1484L24.3945 8.35366ZM25.5233 7.35795C24.6318 7.67924 23.7599 8.04128 22.9098 8.44177L24.6145 12.0603C25.3514 11.7132 26.1071 11.3994 26.8795 11.121L25.5233 7.35795ZM28.851 -0.531239L24.4126 8.345L27.9902 10.134L32.4287 1.25772L28.851 -0.531239ZM35.7558 -2C33.9236 -2 32.1207 -1.86934 30.3562 -1.61654L30.9235 2.34303C32.5007 2.11707 34.114 2 35.7558 2V-2ZM41.1535 -1.61682C39.3896 -1.86943 37.5874 -2 35.7558 -2V2C37.3971 2 39.0098 2.11698 40.5864 2.34278L41.1535 -1.61682ZM47.0968 8.34377L42.6588 -0.5315L39.0811 1.25746L43.5191 10.1327L47.0968 8.34377ZM48.6018 8.44118C47.7509 8.04037 46.8781 7.6781 45.9858 7.35663L44.6301 11.1199C45.4032 11.3984 46.1596 11.7124 46.8972 12.0598L48.6018 8.44118ZM56.5298 5.21584L47.1171 8.35312L48.3819 12.1479L57.7946 9.01062L56.5298 5.21584ZM65.9986 13.1497C63.8307 10.2538 61.2567 7.67993 58.3608 5.51213L55.9637 8.71433C58.5543 10.6535 60.8572 12.9564 62.7965 15.5469L65.9986 13.1497ZM63.1578 24.3929L66.295 14.9807L62.5002 13.7159L59.3631 23.1281L63.1578 24.3929ZM64.1549 25.5253C63.8333 24.6325 63.4708 23.7594 63.0697 22.9081L59.4512 24.6129C59.7989 25.3509 60.113 26.1076 60.3917 26.8811L64.1549 25.5253ZM72.0431 28.8524L63.1678 24.4144L61.3788 27.992L70.2541 32.43L72.0431 28.8524ZM73.5117 35.7558C73.5117 33.9241 73.3811 32.1217 73.1284 30.3576L69.1688 30.9248C69.3947 32.5015 69.5117 34.1144 69.5117 35.7558H73.5117ZM73.1284 41.1538C73.3811 39.3899 73.5117 37.5875 73.5117 35.7558H69.5117C69.5117 37.3972 69.3947 39.01 69.1688 40.5867L73.1284 41.1538ZM63.1675 47.0972L72.0431 42.6591L70.2542 39.0814L61.3785 43.5196L63.1675 47.0972ZM63.0696 48.603C63.4706 47.7519 63.833 46.8789 64.1546 45.9864L60.3914 44.6304C60.1128 45.4038 59.7987 46.1604 59.4511 46.8981L63.0696 48.603ZM66.295 56.5309L63.1577 47.1181L59.3629 48.3829L62.5002 57.7957L66.295 56.5309ZM58.3609 65.9994C61.2568 63.8316 63.8308 61.2577 65.9987 58.3619L62.7966 55.9647C60.8573 58.5552 58.5544 60.858 55.9639 62.7972L58.3609 65.9994ZM47.1163 63.1581L56.53 66.2957L57.7948 62.5009L48.3811 59.3633L47.1163 63.1581ZM45.9862 64.154C46.8781 63.8327 47.7504 63.4706 48.6009 63.07L46.8964 59.4514C46.1592 59.7986 45.4032 60.1124 44.6304 60.3908L45.9862 64.154ZM42.6587 72.0432L47.0972 63.1669L43.5195 61.3779L39.081 70.2542L42.6587 72.0432ZM35.7558 73.5117C37.5874 73.5117 39.3896 73.3811 41.1534 73.1285L40.5863 69.1689C39.0098 69.3947 37.397 69.5117 35.7558 69.5117V73.5117ZM30.3563 73.1282C32.1208 73.381 33.9236 73.5117 35.7558 73.5117V69.5117C34.114 69.5117 32.5007 69.3946 30.9236 69.1687L30.3563 73.1282ZM24.4122 63.1657L28.8511 72.0429L32.4288 70.254L27.9898 61.3767L24.4122 63.1657ZM22.9107 63.0695C23.7604 63.4697 24.6318 63.8316 25.5229 64.1527L26.8792 60.3897C26.1071 60.1114 25.3518 59.7978 24.6153 59.4508L22.9107 63.0695ZM14.9811 66.2953L24.3954 63.1575L23.1306 59.3628L13.7163 62.5005L14.9811 66.2953ZM5.51176 58.3603C7.67976 61.2566 10.254 63.8309 13.1502 65.999L15.5473 62.7968C12.9565 60.8573 10.6534 58.5542 8.714 55.9633L5.51176 58.3603ZM8.35342 47.1147L5.2155 56.5294L9.01027 57.7942L12.1482 48.3795L8.35342 47.1147ZM7.35883 45.9882C7.6798 46.8788 8.04142 47.7499 8.44144 48.5992L12.0602 46.8949C11.7134 46.1587 11.4 45.4037 11.1219 44.632L7.35883 45.9882ZM-0.531326 42.66L8.34589 47.0989L10.1348 43.5213L1.25764 39.0824L-0.531326 42.66ZM-2 35.7558C-2 37.5878 -1.86937 39.3905 -1.61663 41.1548L2.34294 40.5876C2.11704 39.0106 2 37.3975 2 35.7558H-2ZM-1.6166 30.3567C-1.86936 32.121 -2 33.9237 -2 35.7558H2C2 34.1141 2.11705 32.5009 2.34297 30.9239L-1.6166 30.3567ZM8.3456 24.4127L-0.531297 28.8514L1.25766 32.4291L10.1346 27.9903L8.3456 24.4127ZM8.4413 22.9119C8.04121 23.7614 7.67953 24.6327 7.35852 25.5235L11.1216 26.8795C11.3998 26.1077 11.7132 25.3526 12.06 24.6162L8.4413 22.9119ZM5.21554 14.9822L8.35329 24.3964L12.1481 23.1316L9.01031 13.7174L5.21554 14.9822ZM13.1504 5.51254C10.2541 7.68066 7.67984 10.255 5.51181 13.1513L8.71404 15.5483C10.6535 12.9574 12.9566 10.6542 15.5475 8.7147L13.1504 5.51254ZM43.4118 35.756C43.4118 39.9851 39.9835 43.4135 35.7544 43.4135V47.4135C42.1926 47.4135 47.4118 42.1943 47.4118 35.756H43.4118ZM35.7544 28.0986C39.9835 28.0986 43.4118 31.5269 43.4118 35.756H47.4118C47.4118 29.3178 42.1926 24.0986 35.7544 24.0986V28.0986ZM28.0969 35.756C28.0969 31.5269 31.5253 28.0986 35.7544 28.0986V24.0986C29.3161 24.0986 24.0969 29.3178 24.0969 35.756H28.0969ZM35.7544 43.4135C31.5253 43.4135 28.0969 39.9851 28.0969 35.756H24.0969C24.0969 42.1943 29.3161 47.4135 35.7544 47.4135V43.4135Z" fill="#484B41" mask="url(#path-1-inside-1_249_6)"/>
</svg>
