<svg width="24" height="24" viewBox="0 0 20 20" fill="none" xmlns="http://www.w3.org/2000/svg" color="#EA3737"><path d="M16.5 3.74h-3.229l-.831-1.265a.499.499 0 0 0-.419-.225H7.978a.503.503 0 0 0-.418.225l-.831 1.264H3.5a.502.502 0 0 0-.5.497v1.986a.495.495 0 0 0 .5.496h1v10.535a.495.495 0 0 0 .5.497h10a.502.502 0 0 0 .5-.497V6.718h1a.502.502 0 0 0 .5-.496V4.236a.495.495 0 0 0-.5-.497Zm-8.25-.497h3.501l.326.496H7.923l.327-.496Zm6.25 13.514h-9V6.718h9v10.039ZM16 5.725H4v-.993h12v.993Zm-8.4 9.488a.502.502 0 0 0 .5-.496V8.759a.495.495 0 0 0-.5-.497.502.502 0 0 0-.5.497v5.958a.495.495 0 0 0 .5.496Zm2.4 0a.502.502 0 0 0 .5-.496V8.759a.495.495 0 0 0-.5-.497.502.502 0 0 0-.5.497v5.958a.495.495 0 0 0 .5.496Zm2.4 0a.502.502 0 0 0 .5-.496V8.759a.495.495 0 0 0-.5-.497.502.502 0 0 0-.5.497v5.958a.495.495 0 0 0 .5.496Z" fill="#EA3737"></path></svg>