<svg width="76" height="76" viewBox="0 0 76 76" fill="none" xmlns="http://www.w3.org/2000/svg">
<path d="M27.9326 61.75H20.8076C16.3984 61.75 12.1698 59.9984 9.05197 56.8807C5.93417 53.7629 4.18262 49.5342 4.18262 45.125C4.18262 40.7158 5.93417 36.4871 9.05197 33.3694C12.1698 30.2516 16.3984 28.5 20.8076 28.5C22.1986 28.4995 23.5844 28.669 24.9342 29.0047" stroke="#7D7D7D" stroke-width="3" stroke-linecap="square" stroke-linejoin="round"/>
<path d="M23.75 38C23.75 34.2368 24.6443 30.5274 26.3591 27.1776C28.0739 23.8278 30.5602 20.9334 33.6131 18.733C36.666 16.5326 40.1981 15.0892 43.9183 14.5216C47.6385 13.9541 51.4403 14.2787 55.0104 15.4688C58.5805 16.6588 61.8167 18.6802 64.4524 21.3663C67.088 24.0525 69.0476 27.3265 70.1697 30.9185C71.2918 34.5106 71.5442 38.3179 70.9062 42.0266C70.2681 45.7354 68.7579 49.2394 66.5 52.25" stroke="#7D7D7D" stroke-width="3" stroke-linecap="square" stroke-linejoin="round"/>
<path d="M35.0605 46.3629L45.1246 36.2988L55.1887 46.3629" stroke="#7D7D7D" stroke-width="3" stroke-linecap="square"/>
<path d="M45.125 61.75V38" stroke="#7D7D7D" stroke-width="3" stroke-linecap="square" stroke-linejoin="round"/>
</svg>
